<svg width="400" height="400" xmlns="http://www.w3.org/2000/svg">
  <defs>
    <linearGradient id="carrotGradient" x1="0%" y1="0%" x2="100%" y2="100%">
      <stop offset="0%" stop-color="#ff7675"/>
      <stop offset="50%" stop-color="#fd79a8"/>
      <stop offset="100%" stop-color="#e84393"/>
    </linearGradient>
  </defs>
  <rect width="100%" height="100%" fill="#f8f9fa"/>
  <!-- Carrot body -->
  <path d="M 200 120 Q 190 140 185 180 Q 180 220 185 260 Q 190 280 200 285 Q 210 280 215 260 Q 220 220 215 180 Q 210 140 200 120" fill="url(#carrotGradient)"/>
  <!-- Carrot lines -->
  <g stroke="#e84393" stroke-width="1" fill="none">
    <path d="M 190 140 Q 200 145 210 140"/>
    <path d="M 188 160 Q 200 165 212 160"/>
    <path d="M 186 180 Q 200 185 214 180"/>
    <path d="M 185 200 Q 200 205 215 200"/>
    <path d="M 186 220 Q 200 225 214 220"/>
    <path d="M 188 240 Q 200 245 212 240"/>
    <path d="M 190 260 Q 200 265 210 260"/>
  </g>
  <!-- Carrot top (leaves) -->
  <g fill="#00b894">
    <path d="M 195 120 Q 190 100 185 90 Q 190 95 195 105"/>
    <path d="M 200 115 Q 195 95 190 85 Q 195 90 200 100"/>
    <path d="M 205 115 Q 210 95 215 85 Q 210 90 205 100"/>
    <path d="M 210 120 Q 215 100 220 90 Q 215 95 210 105"/>
    <path d="M 200 118 Q 200 98 195 88 Q 200 93 200 103"/>
    <path d="M 200 118 Q 200 98 205 88 Q 200 93 200 103"/>
  </g>
  <text x="200" y="340" font-family="Arial, sans-serif" font-size="18" fill="#2d3436" text-anchor="middle" font-weight="bold">Organic Carrots</text>
  <text x="200" y="365" font-family="Arial, sans-serif" font-size="14" fill="#636e72" text-anchor="middle">₹80/lb</text>
</svg>