<svg width="400" height="400" xmlns="http://www.w3.org/2000/svg">
  <defs>
    <radialGradient id="eggGradient" cx="0.3" cy="0.3">
      <stop offset="0%" stop-color="#ffeaa7"/>
      <stop offset="100%" stop-color="#fdcb6e"/>
    </radialGradient>
  </defs>
  <rect width="100%" height="100%" fill="#f8f9fa"/>
  <!-- Egg carton -->
  <rect x="120" y="180" width="160" height="80" fill="#8d6e63" rx="5"/>
  <rect x="125" y="185" width="150" height="70" fill="#a1887f" rx="3"/>
  <!-- Eggs -->
  <g fill="url(#eggGradient)">
    <ellipse cx="150" cy="210" rx="12" ry="18"/>
    <ellipse cx="175" cy="210" rx="12" ry="18"/>
    <ellipse cx="200" cy="210" rx="12" ry="18"/>
    <ellipse cx="225" cy="210" rx="12" ry="18"/>
    <ellipse cx="250" cy="210" rx="12" ry="18"/>
    <ellipse cx="162" cy="235" rx="12" ry="18"/>
    <ellipse cx="187" cy="235" rx="12" ry="18"/>
    <ellipse cx="212" cy="235" rx="12" ry="18"/>
    <ellipse cx="237" cy="235" rx="12" ry="18"/>
  </g>
  <!-- Egg highlights -->
  <g fill="#fff" opacity="0.3">
    <ellipse cx="145" cy="205" rx="3" ry="5"/>
    <ellipse cx="170" cy="205" rx="3" ry="5"/>
    <ellipse cx="195" cy="205" rx="3" ry="5"/>
    <ellipse cx="220" cy="205" rx="3" ry="5"/>
    <ellipse cx="245" cy="205" rx="3" ry="5"/>
    <ellipse cx="157" cy="230" rx="3" ry="5"/>
    <ellipse cx="182" cy="230" rx="3" ry="5"/>
    <ellipse cx="207" cy="230" rx="3" ry="5"/>
    <ellipse cx="232" cy="230" rx="3" ry="5"/>
  </g>
  <text x="200" y="320" font-family="Arial, sans-serif" font-size="18" fill="#2d3436" text-anchor="middle" font-weight="bold">Farm Fresh Eggs</text>
  <text x="200" y="345" font-family="Arial, sans-serif" font-size="14" fill="#636e72" text-anchor="middle">₹150/dozen</text>
</svg>