<svg width="400" height="400" xmlns="http://www.w3.org/2000/svg">
  <defs>
    <radialGradient id="strawberryGradient" cx="0.3" cy="0.3">
      <stop offset="0%" stop-color="#ff7675"/>
      <stop offset="100%" stop-color="#d63031"/>
    </radialGradient>
  </defs>
  <rect width="100%" height="100%" fill="#f8f9fa"/>
  <!-- Strawberry body -->
  <path d="M 200 120 Q 160 140 170 200 Q 180 240 200 250 Q 220 240 230 200 Q 240 140 200 120" fill="url(#strawberryGradient)"/>
  <!-- Seeds -->
  <g fill="#2d3436">
    <ellipse cx="185" cy="150" rx="2" ry="3"/>
    <ellipse cx="215" cy="155" rx="2" ry="3"/>
    <ellipse cx="190" cy="175" rx="2" ry="3"/>
    <ellipse cx="210" cy="180" rx="2" ry="3"/>
    <ellipse cx="185" cy="200" rx="2" ry="3"/>
    <ellipse cx="215" cy="205" rx="2" ry="3"/>
    <ellipse cx="195" cy="220" rx="2" ry="3"/>
    <ellipse cx="205" cy="225" rx="2" ry="3"/>
  </g>
  <!-- Leaves -->
  <path d="M 180 120 Q 190 100 200 110 Q 210 100 220 120 Q 210 115 200 118 Q 190 115 180 120" fill="#00b894"/>
  <path d="M 175 115 Q 185 95 195 105" fill="#00b894"/>
  <path d="M 225 115 Q 215 95 205 105" fill="#00b894"/>
  <text x="200" y="320" font-family="Arial, sans-serif" font-size="18" fill="#2d3436" text-anchor="middle" font-weight="bold">Organic Strawberries</text>
  <text x="200" y="345" font-family="Arial, sans-serif" font-size="14" fill="#636e72" text-anchor="middle">₹180/lb</text>
</svg>